<svg class="diagram-root" style="background: #f5f6f6" xmlns="http://www.w3.org/2000/svg" xmlns:xlink="http://www.w3.org/1999/xlink"><style>.diagram-root { font-family: "Helvetica Neue", sans-serif; font-size: 12px; } .t { overflow: visible; } .t-bg { y: 40; fill: #fff;   } .th { fill: #005aa0;   } .tht { fill: #fff; font-size: 14px;  } .tf { fill: #323c46; overflow: visible; } .tf.pk { fill: #005aa0; font-weight: bold; } .tf.fk { font-weight: bold; } .ty { fill: #adb1b5; font-weight: normal; text-anchor: end; } .r { fill: transparent; stroke: #c3c3c3; stroke-width: 1; } .l { stroke: 1; } .i { fill: #c2c7ce; stroke: #c2c7ce; } .i.ix { fill: #afb3b6; stroke: #000; } .fa { fill: transparent; overflow: visible; } .fa .bg.hover { fill: #f7f7f7; } .c { cy: 12; r: 4; stroke: #d2d2dc; fill: #d2d2dc; } .hr { fill: transparent; stroke: #323c46; stroke-opacity: 0.035; stroke-width: 13; } .dc { stroke: #fa5a3c; fill: #fa5a3c; } .x { stroke: white; stroke-width: 1; } .hl .th { fill: #1b9bff; } .hl .tht {  } .fhl .bg { fill: #e7f4ff; } .fhls .bg {  } .r.hl { stroke: #1b9bff; } .dim { opacity: 0.25; }</style><g class="drawing-wrapper" transform="translate(-60, -18) scale(1,1)"><g class="rs"><path d="M 362 110 m -1, 0 a 1,1 0 1,0 2,0 a 1,1 0 1,0 -2,0 M 362 110 m -0.5, 0 a 0.5,0.5 0 1,0 1,0 a 0.5,0.5 0 1,0 -1,0  M362 110 L362 110 350 110 M 362 116 m -1, 0 a 1,1 0 1,0 2,0 a 1,1 0 1,0 -2,0 M 362 116 m -0.5, 0 a 0.5,0.5 0 1,0 1,0 a 0.5,0.5 0 1,0 -1,0  M362 116 L362 116 355 110 362 104 M 362 104 m -1, 0 a 1,1 0 1,0 2,0 a 1,1 0 1,0 -2,0 M 362 104 m -0.5, 0 a 0.5,0.5 0 1,0 1,0 a 0.5,0.5 0 1,0 -1,0  M350 110 Q 330.68 110, 311.36 107.5 T 272.71 105 M 260.71 105 m -1, 0 a 1,1 0 1,0 2,0 a 1,1 0 1,0 -2,0 M 260.71 105 m -0.5, 0 a 0.5,0.5 0 1,0 1,0 a 0.5,0.5 0 1,0 -1,0  M260.71 105 L260.71 105 272.71 105 M266.71 111 L266.71 111 266.71 99" id="h246987188" class="r"></path><path d="M 478.01 135 m -1, 0 a 1,1 0 1,0 2,0 a 1,1 0 1,0 -2,0 M 478.01 135 m -0.5, 0 a 0.5,0.5 0 1,0 1,0 a 0.5,0.5 0 1,0 -1,0  M478.01 135 L478.01 135 490.01 135 M 478.01 141 m -1, 0 a 1,1 0 1,0 2,0 a 1,1 0 1,0 -2,0 M 478.01 141 m -0.5, 0 a 0.5,0.5 0 1,0 1,0 a 0.5,0.5 0 1,0 -1,0  M478.01 141 L478.01 141 485.01 135 478.01 129 M 478.01 129 m -1, 0 a 1,1 0 1,0 2,0 a 1,1 0 1,0 -2,0 M 478.01 129 m -0.5, 0 a 0.5,0.5 0 1,0 1,0 a 0.5,0.5 0 1,0 -1,0  M490.01 135 Q 509.76 135, 529.51 124 T 569 113 M 581 113 m -1, 0 a 1,1 0 1,0 2,0 a 1,1 0 1,0 -2,0 M 581 113 m -0.5, 0 a 0.5,0.5 0 1,0 1,0 a 0.5,0.5 0 1,0 -1,0  M581 113 L581 113 569 113 M575 119 L575 119 575 107" id="h3018147928" class="r"></path><path d="M 863 136 m -1, 0 a 1,1 0 1,0 2,0 a 1,1 0 1,0 -2,0 M 863 136 m -0.5, 0 a 0.5,0.5 0 1,0 1,0 a 0.5,0.5 0 1,0 -1,0  M863 136 L863 136 851 136 M 863 142 m -1, 0 a 1,1 0 1,0 2,0 a 1,1 0 1,0 -2,0 M 863 142 m -0.5, 0 a 0.5,0.5 0 1,0 1,0 a 0.5,0.5 0 1,0 -1,0  M863 142 L863 142 856 136 863 130 M 863 130 m -1, 0 a 1,1 0 1,0 2,0 a 1,1 0 1,0 -2,0 M 863 130 m -0.5, 0 a 0.5,0.5 0 1,0 1,0 a 0.5,0.5 0 1,0 -1,0  M851 136 Q 819.62 136, 788.24 137 T 725.47 138 M 713.47 138 m -1, 0 a 1,1 0 1,0 2,0 a 1,1 0 1,0 -2,0 M 713.47 138 m -0.5, 0 a 0.5,0.5 0 1,0 1,0 a 0.5,0.5 0 1,0 -1,0  M713.47 138 L713.47 138 725.47 138 M719.47 144 L719.47 144 719.47 132" id="h3084688326" class="r"></path><path d="M 419.47 381 m -1, 0 a 1,1 0 1,0 2,0 a 1,1 0 1,0 -2,0 M 419.47 381 m -0.5, 0 a 0.5,0.5 0 1,0 1,0 a 0.5,0.5 0 1,0 -1,0  M419.47 381 L419.47 381 431.47 381 M 419.47 387 m -1, 0 a 1,1 0 1,0 2,0 a 1,1 0 1,0 -2,0 M 419.47 387 m -0.5, 0 a 0.5,0.5 0 1,0 1,0 a 0.5,0.5 0 1,0 -1,0  M419.47 387 L419.47 387 426.47 381 419.47 375 M 419.47 375 m -1, 0 a 1,1 0 1,0 2,0 a 1,1 0 1,0 -2,0 M 419.47 375 m -0.5, 0 a 0.5,0.5 0 1,0 1,0 a 0.5,0.5 0 1,0 -1,0  M431.47 381 Q 465.86 381, 500.24 272 T 569 163 M 581 163 m -1, 0 a 1,1 0 1,0 2,0 a 1,1 0 1,0 -2,0 M 581 163 m -0.5, 0 a 0.5,0.5 0 1,0 1,0 a 0.5,0.5 0 1,0 -1,0  M581 163 L581 163 569 163 M575 169 L575 169 575 157" id="h1718470665" class="r"></path><path d="M 801 383 m -1, 0 a 1,1 0 1,0 2,0 a 1,1 0 1,0 -2,0 M 801 383 m -0.5, 0 a 0.5,0.5 0 1,0 1,0 a 0.5,0.5 0 1,0 -1,0  M801 383 L801 383 789 383 M 801 389 m -1, 0 a 1,1 0 1,0 2,0 a 1,1 0 1,0 -2,0 M 801 389 m -0.5, 0 a 0.5,0.5 0 1,0 1,0 a 0.5,0.5 0 1,0 -1,0  M801 389 L801 389 794 383 801 377 M 801 377 m -1, 0 a 1,1 0 1,0 2,0 a 1,1 0 1,0 -2,0 M 801 377 m -0.5, 0 a 0.5,0.5 0 1,0 1,0 a 0.5,0.5 0 1,0 -1,0  M789 383 Q 773.12 383, 757.24 285.5 T 725.47 188 M 713.47 188 m -1, 0 a 1,1 0 1,0 2,0 a 1,1 0 1,0 -2,0 M 713.47 188 m -0.5, 0 a 0.5,0.5 0 1,0 1,0 a 0.5,0.5 0 1,0 -1,0  M713.47 188 L713.47 188 725.47 188 M719.47 194 L719.47 194 719.47 182" id="h1739493665" class="r"></path></g><g class="hrs"></g><g class="ts"><svg width="178.71" height="150" x="82" y="48" id="h1537667952" class="t"><rect height="40" width="178.71" class="th"></rect><text x="13" y="25" class="tht">User</text><rect height="110" width="178.71" class="t-bg"></rect><text x="13" y="61" class="tf pk">UserID<tspan x="165.71" class="ty">int</tspan></text><path d="M7,14A2,2 0 0,1 5,12A2,2 0 0,1 7,10A2,2 0 0,1 9,12A2,2 0 0,1 7,14M12.65,10C11.83,7.67 9.61,6 7, 6A6, 6 0 0, 0 1, 12A6, 6 0 0, 0 7, 18C9.61, 18 11.83, 16.33 12.65, 14H17V18H21V14H23V10H12.65Z" class="i pk" transform="translate(133.036171875, 48) scale(0.65)"></path><text x="13" y="86" class="tf">Username<tspan x="165.71" class="ty">varchar(15)</tspan></text><path d="M22,18V22H18V19H15V16H12L9.74,13.74C9.19,13.91 8.61,14 8,14A6,6 0 0,1 2,8A6,6 0 0,1 8,2A6,6 0 0,1 14,8C14,8.61 13.91, 9.19 13.74, 9.74L22, 18M7, 5A2, 2 0 0, 0 5, 7A2, 2 0 0, 0 7, 9A2, 2 0 0, 0 9, 7A2, 2 0 0, 0 7, 5Z" class="i uq" transform="translate(88.35648437500001, 75.5) scale(0.5)"></path><text x="13" y="111" class="tf">Password<tspan x="165.71" class="ty">string</tspan></text><text x="13" y="136" class="tf">Image<tspan x="165.71" class="ty">string?</tspan></text></svg><svg width="116.01" height="100" x="362" y="53" id="h1820570925" class="t"><rect height="40" width="116.01" class="th"></rect><text x="13" y="25" class="tht">User-Quiz</text><rect height="60" width="116.01" class="t-bg"></rect><text x="13" y="61" class="tf pk">UserID<tspan x="103.01" class="ty">int</tspan></text><path d="M7,14A2,2 0 0,1 5,12A2,2 0 0,1 7,10A2,2 0 0,1 9,12A2,2 0 0,1 7,14M12.65,10C11.83,7.67 9.61,6 7, 6A6, 6 0 0, 0 1, 12A6, 6 0 0, 0 7, 18C9.61, 18 11.83, 16.33 12.65, 14H17V18H21V14H23V10H12.65Z" class="i pk" transform="translate(70.336171875, 48) scale(0.65)"></path><text x="13" y="86" class="tf pk">QuizID<tspan x="103.01" class="ty">int</tspan></text><path d="M7,14A2,2 0 0,1 5,12A2,2 0 0,1 7,10A2,2 0 0,1 9,12A2,2 0 0,1 7,14M12.65,10C11.83,7.67 9.61,6 7, 6A6, 6 0 0, 0 1, 12A6, 6 0 0, 0 7, 18C9.61, 18 11.83, 16.33 12.65, 14H17V18H21V14H23V10H12.65Z" class="i pk" transform="translate(70.336171875, 73) scale(0.65)"></path></svg><svg width="132.47" height="150" x="581" y="56" id="h2924362971" class="t"><rect height="40" width="132.47" class="th"></rect><text x="13" y="25" class="tht">Quiz</text><rect height="110" width="132.47" class="t-bg"></rect><text x="13" y="61" class="tf pk">ID<tspan x="119.47" class="ty">int</tspan></text><path d="M7,14A2,2 0 0,1 5,12A2,2 0 0,1 7,10A2,2 0 0,1 9,12A2,2 0 0,1 7,14M12.65,10C11.83,7.67 9.61,6 7, 6A6, 6 0 0, 0 1, 12A6, 6 0 0, 0 7, 18C9.61, 18 11.83, 16.33 12.65, 14H17V18H21V14H23V10H12.65Z" class="i pk" transform="translate(86.796171875, 48) scale(0.65)"></path><text x="13" y="86" class="tf fk">CategoryID<tspan x="119.47" class="ty">int</tspan></text><text x="13" y="111" class="tf fk">DifficultyID<tspan x="119.47" class="ty">string</tspan></text><text x="13" y="136" class="tf fk">TypeID<tspan x="119.47" class="ty">string</tspan></text></svg><svg width="123.35" height="100" x="863" y="79" id="h1903237708" class="t"><rect height="40" width="123.35" class="th"></rect><text x="13" y="25" class="tht">Category</text><rect height="60" width="123.35" class="t-bg"></rect><text x="13" y="61" class="tf pk">ID<tspan x="110.35" class="ty">int</tspan></text><path d="M7,14A2,2 0 0,1 5,12A2,2 0 0,1 7,10A2,2 0 0,1 9,12A2,2 0 0,1 7,14M12.65,10C11.83,7.67 9.61,6 7, 6A6, 6 0 0, 0 1, 12A6, 6 0 0, 0 7, 18C9.61, 18 11.83, 16.33 12.65, 14H17V18H21V14H23V10H12.65Z" class="i pk" transform="translate(77.676171875, 48) scale(0.65)"></path><text x="13" y="86" class="tf">Name<tspan x="110.35" class="ty">string</tspan></text><path d="M22,18V22H18V19H15V16H12L9.74,13.74C9.19,13.91 8.61,14 8,14A6,6 0 0,1 2,8A6,6 0 0,1 8,2A6,6 0 0,1 14,8C14,8.61 13.91, 9.19 13.74, 9.74L22, 18M7, 5A2, 2 0 0, 0 5, 7A2, 2 0 0, 0 7, 9A2, 2 0 0, 0 9, 7A2, 2 0 0, 0 7, 5Z" class="i uq" transform="translate(65.00625, 75.5) scale(0.5)"></path></svg><svg width="120.47" height="100" x="299" y="324" id="h3378451813" class="t"><rect height="40" width="120.47" class="th"></rect><text x="13" y="25" class="tht">Difficulty</text><rect height="60" width="120.47" class="t-bg"></rect><text x="13" y="61" class="tf pk">ID<tspan x="107.47" class="ty">int</tspan></text><path d="M7,14A2,2 0 0,1 5,12A2,2 0 0,1 7,10A2,2 0 0,1 9,12A2,2 0 0,1 7,14M12.65,10C11.83,7.67 9.61,6 7, 6A6, 6 0 0, 0 1, 12A6, 6 0 0, 0 7, 18C9.61, 18 11.83, 16.33 12.65, 14H17V18H21V14H23V10H12.65Z" class="i pk" transform="translate(74.796171875, 48) scale(0.65)"></path><text x="13" y="86" class="tf">Difficulty<tspan x="107.47" class="ty">string</tspan></text></svg><svg width="101.36" height="100" x="801" y="326" id="h362157398" class="t"><rect height="40" width="101.36" class="th"></rect><text x="13" y="25" class="tht">Type</text><rect height="60" width="101.36" class="t-bg"></rect><text x="13" y="61" class="tf pk">ID<tspan x="88.36" class="ty">int</tspan></text><path d="M7,14A2,2 0 0,1 5,12A2,2 0 0,1 7,10A2,2 0 0,1 9,12A2,2 0 0,1 7,14M12.65,10C11.83,7.67 9.61,6 7, 6A6, 6 0 0, 0 1, 12A6, 6 0 0, 0 7, 18C9.61, 18 11.83, 16.33 12.65, 14H17V18H21V14H23V10H12.65Z" class="i pk" transform="translate(55.686171875, 48) scale(0.65)"></path><text x="13" y="86" class="tf">Type<tspan x="88.36" class="ty">string</tspan></text></svg></g></g><text class="qdbd-link" x="10" y="20">www.quickdatabasediagrams.com</text></svg>