<svg class="diagram-root" style="background: #f5f6f6" xmlns="http://www.w3.org/2000/svg" xmlns:xlink="http://www.w3.org/1999/xlink"><style>.diagram-root { font-family: "Helvetica Neue", sans-serif; font-size: 12px; } .t { overflow: visible; } .t-bg { y: 40; fill: #fff;   } .th { fill: #005aa0;   } .tht { fill: #fff; font-size: 14px;  } .tf { fill: #323c46; overflow: visible; } .tf.pk { fill: #005aa0; font-weight: bold; } .tf.fk { font-weight: bold; } .ty { fill: #adb1b5; font-weight: normal; text-anchor: end; } .r { fill: transparent; stroke: #c3c3c3; stroke-width: 1; } .l { stroke: 1; } .i { fill: #c2c7ce; stroke: #c2c7ce; } .i.ix { fill: #afb3b6; stroke: #000; } .fa { fill: transparent; overflow: visible; } .fa .bg.hover { fill: #f7f7f7; } .c { cy: 12; r: 4; stroke: #d2d2dc; fill: #d2d2dc; } .hr { fill: transparent; stroke: #323c46; stroke-opacity: 0.035; stroke-width: 13; } .dc { stroke: #fa5a3c; fill: #fa5a3c; } .x { stroke: white; stroke-width: 1; } .hl .th { fill: #1b9bff; } .hl .tht {  } .fhl .bg { fill: #e7f4ff; } .fhls .bg {  } .r.hl { stroke: #1b9bff; } .dim { opacity: 0.25; }</style><g class="drawing-wrapper" transform="translate(2, 18) scale(1,1)"><g class="rs"><path d="M 338 101 m -1, 0 a 1,1 0 1,0 2,0 a 1,1 0 1,0 -2,0 M 338 101 m -0.5, 0 a 0.5,0.5 0 1,0 1,0 a 0.5,0.5 0 1,0 -1,0  M338 101 L338 101 326 101 M 338 107 m -1, 0 a 1,1 0 1,0 2,0 a 1,1 0 1,0 -2,0 M 338 107 m -0.5, 0 a 0.5,0.5 0 1,0 1,0 a 0.5,0.5 0 1,0 -1,0  M338 107 L338 107 331 101 338 95 M 338 95 m -1, 0 a 1,1 0 1,0 2,0 a 1,1 0 1,0 -2,0 M 338 95 m -0.5, 0 a 0.5,0.5 0 1,0 1,0 a 0.5,0.5 0 1,0 -1,0  M326 101 Q 291.68 101, 257.35 94 T 188.7 87 M 176.7 87 m -1, 0 a 1,1 0 1,0 2,0 a 1,1 0 1,0 -2,0 M 176.7 87 m -0.5, 0 a 0.5,0.5 0 1,0 1,0 a 0.5,0.5 0 1,0 -1,0  M176.7 87 L176.7 87 188.7 87 M182.7 93 L182.7 93 182.7 81" id="h4187325385" class="r"></path><path d="M 509.41 126 m -1, 0 a 1,1 0 1,0 2,0 a 1,1 0 1,0 -2,0 M 509.41 126 m -0.5, 0 a 0.5,0.5 0 1,0 1,0 a 0.5,0.5 0 1,0 -1,0  M509.41 126 L509.41 126 521.4100000000001 126 M 509.41 132 m -1, 0 a 1,1 0 1,0 2,0 a 1,1 0 1,0 -2,0 M 509.41 132 m -0.5, 0 a 0.5,0.5 0 1,0 1,0 a 0.5,0.5 0 1,0 -1,0  M509.41 132 L509.41 132 516.4100000000001 126 509.41 120 M 509.41 120 m -1, 0 a 1,1 0 1,0 2,0 a 1,1 0 1,0 -2,0 M 509.41 120 m -0.5, 0 a 0.5,0.5 0 1,0 1,0 a 0.5,0.5 0 1,0 -1,0  M521.4100000000001 126 Q 550.31 126, 579.21 120 T 637 114 M 649 114 m -1, 0 a 1,1 0 1,0 2,0 a 1,1 0 1,0 -2,0 M 649 114 m -0.5, 0 a 0.5,0.5 0 1,0 1,0 a 0.5,0.5 0 1,0 -1,0  M649 114 L649 114 637 114 M643 120 L643 120 643 108" id="h1060287618" class="r"></path></g><g class="hrs"></g><g class="ts"><svg width="146.7" height="150" x="30" y="30" id="h1537667952" class="t"><rect height="40" width="146.7" class="th"></rect><text x="13" y="25" class="tht">User</text><rect height="110" width="146.7" class="t-bg"></rect><text x="13" y="61" class="tf pk">ID<tspan x="133.7" class="ty">int</tspan></text><path d="M7,14A2,2 0 0,1 5,12A2,2 0 0,1 7,10A2,2 0 0,1 9,12A2,2 0 0,1 7,14M12.65,10C11.83,7.67 9.61,6 7, 6A6, 6 0 0, 0 1, 12A6, 6 0 0, 0 7, 18C9.61, 18 11.83, 16.33 12.65, 14H17V18H21V14H23V10H12.65Z" class="i pk" transform="translate(101.02617187499999, 48) scale(0.65)"></path><text x="13" y="86" class="tf">Username<tspan x="133.7" class="ty">string</tspan></text><path d="M22,18V22H18V19H15V16H12L9.74,13.74C9.19,13.91 8.61,14 8,14A6,6 0 0,1 2,8A6,6 0 0,1 8,2A6,6 0 0,1 14,8C14,8.61 13.91, 9.19 13.74, 9.74L22, 18M7, 5A2, 2 0 0, 0 5, 7A2, 2 0 0, 0 7, 9A2, 2 0 0, 0 9, 7A2, 2 0 0, 0 7, 5Z" class="i uq" transform="translate(88.35624999999999, 75.5) scale(0.5)"></path><text x="13" y="111" class="tf">Password<tspan x="133.7" class="ty">string</tspan></text><text x="13" y="136" class="tf">Image_url<tspan x="133.7" class="ty">string</tspan></text></svg><svg width="171.41" height="175" x="338" y="44" id="h1115764060" class="t"><rect height="40" width="171.41" class="th"></rect><text x="13" y="25" class="tht">User-Category</text><rect height="135" width="171.41" class="t-bg"></rect><text x="13" y="61" class="tf pk">UserID<tspan x="158.41" class="ty">int</tspan></text><path d="M7,14A2,2 0 0,1 5,12A2,2 0 0,1 7,10A2,2 0 0,1 9,12A2,2 0 0,1 7,14M12.65,10C11.83,7.67 9.61,6 7, 6A6, 6 0 0, 0 1, 12A6, 6 0 0, 0 7, 18C9.61, 18 11.83, 16.33 12.65, 14H17V18H21V14H23V10H12.65Z" class="i pk" transform="translate(125.736171875, 48) scale(0.65)"></path><text x="13" y="86" class="tf pk">CategoryID<tspan x="158.41" class="ty">int</tspan></text><path d="M7,14A2,2 0 0,1 5,12A2,2 0 0,1 7,10A2,2 0 0,1 9,12A2,2 0 0,1 7,14M12.65,10C11.83,7.67 9.61,6 7, 6A6, 6 0 0, 0 1, 12A6, 6 0 0, 0 7, 18C9.61, 18 11.83, 16.33 12.65, 14H17V18H21V14H23V10H12.65Z" class="i pk" transform="translate(125.736171875, 73) scale(0.65)"></path><text x="13" y="111" class="tf">Quizzes_taken<tspan x="158.41" class="ty">int</tspan></text><text x="13" y="136" class="tf">Questions_answered<tspan x="158.41" class="ty">int</tspan></text><text x="13" y="161" class="tf">Correct_answers<tspan x="158.41" class="ty">int</tspan></text></svg><svg width="107.35" height="100" x="649" y="57" id="h1903237708" class="t"><rect height="40" width="107.35" class="th"></rect><text x="13" y="25" class="tht">Category</text><rect height="60" width="107.35" class="t-bg"></rect><text x="13" y="61" class="tf pk">ID<tspan x="94.35" class="ty">int</tspan></text><path d="M7,14A2,2 0 0,1 5,12A2,2 0 0,1 7,10A2,2 0 0,1 9,12A2,2 0 0,1 7,14M12.65,10C11.83,7.67 9.61,6 7, 6A6, 6 0 0, 0 1, 12A6, 6 0 0, 0 7, 18C9.61, 18 11.83, 16.33 12.65, 14H17V18H21V14H23V10H12.65Z" class="i pk" transform="translate(61.676171874999994, 48) scale(0.65)"></path><text x="13" y="86" class="tf">Name<tspan x="94.35" class="ty">string</tspan></text></svg></g></g><text class="qdbd-link" x="10" y="20">www.quickdatabasediagrams.com</text></svg>